<svg width="1200" height="1200" xmlns="http://www.w3.org/2000/svg" xmlns:xlink="http://www.w3.org/1999/xlink" version="1.1"><g transform="scale(2.662427779845411) translate(-30.64184315999347, -30.64157231648763)">                        <g fill="#fcfbf4"><path xmlns="http://www.w3.org/2000/svg" d="M194.955,62.357c-2.373-2.519-5.749-3.851-9.201-3.69c-4.494,0.229-10.364,0.802-16.994,2.097  c-1.656-4.396-5.836-7.537-10.78-7.586c-6.454-0.065-11.739,5.115-11.805,11.57l-0.028,2.903  c-19.922,8.526-40.787,24.896-51.623,56.179c-6.514,18.79-7.644,40.199-3.271,61.905c1.992,9.9,4.579,18.477,7.69,25.493l0.1,0.225  c0.018,1.959,0.084,3.889,0.184,5.799c0.909,0.267,1.817,0.526,2.724,0.757c1.577,0.403,3.146,0.745,4.708,1.045  c34.796,6.68,65.671-11.267,75.889-18.14c-3.995-3.774-6.384-7.841-7.783-11.123c-10.756-0.009-35.268-1.348-56.805-11.913  c-1.568-0.77-3.112-1.598-4.642-2.468c-1.544-0.879-3.056-1.818-4.547-2.806c-1.319-0.875-2.608-1.798-3.876-2.763  c-1.399,4.88-2.533,9.661-3.405,14.334c-0.034-0.165-0.075-0.312-0.108-0.477c-4.01-19.903-3.008-39.434,2.9-56.488  c8.854-25.557,25.295-39.958,41.75-48.065l-0.154,15.321c-2.261,2.83-4.39,5.632-6.459,8.421c0.275,0.698,0.595,1.468,0.932,2.262  c0.687,1.614,1.523,3.426,2.488,5.371c0.81,1.631,1.703,3.339,2.728,5.146c7.295,12.879,20.291,29.556,41.978,40.938  c5.168-3.313,11.334-5.206,17.889-5.14l24.117,0.242c1.459,0.015,2.882-0.117,4.282-0.319v0c0.002,0,0.004-0.001,0.006-0.001  c6.544-0.946,35.272-3.138,22.858-31.552c-2.527-5.785-13.309-9.787-13.311-9.788l0,0c-5.194-2.167-9.815-3.278-9.815-3.278  c-11.89-2.502-17.986-11.627-20.726-17.418c-1.431-3.022-4.43-4.966-7.773-5l-8.389-0.084l1.385-12.592  C198.446,68.257,197.311,64.859,194.955,62.357z M186.276,68.982c0.033,0,0.067-0.003,0.098-0.002  c0.548,0.005,0.898,0.288,1.062,0.461c0.196,0.21,0.421,0.572,0.365,1.1l-1.479,13.446l-0.937,0.165L170.256,84l-0.47-12.897  C176.241,69.774,181.963,69.202,186.276,68.982z M188.174,117.438c-4.388-0.044-7.908-3.637-7.864-8.024s3.636-7.909,8.023-7.865  s7.908,3.637,7.864,8.024S192.561,117.482,188.174,117.438z"/><path xmlns="http://www.w3.org/2000/svg" d="M173.478,350.123c7.34,23.973,22.914,62.583,52.786,91.715c1.729,1.688,4.442,1.9,6.453,0.563l6.377-4.242  c2.473-1.646,3.053-5.043,1.237-7.395c-10.074-13.051-39.142-54.395-44.663-102.727l-14.754-0.379h0.001  c0.642-1.154,1.432-2.615,2.306-4.287c4.391-8.4,11.111-22.713,14.229-36.898c0.364-1.656,1.799-2.842,3.494-2.826  c1.775,0.019,3.27,1.328,3.485,3.09c0.865,7.062,2.365,25.139-2.066,41.473l15.742,0.406  c19.144-54.207,13.364-101.57,10.809-116.229l-12.823-0.129c-2.401-0.024-4.662-0.155-6.806-0.37  c-2.682,16.207-15.123,67.926-66.748,99.262c0.743,0.693,1.157,1.049,1.157,1.049l-0.267,26.63l26.457-1.635l4.455-0.275  l-0.83,12.707L173.478,350.123z"/><path xmlns="http://www.w3.org/2000/svg" d="M368.038,458.698l12.368,0.124c2.188,0.021,4.042-1.607,4.301-3.781l7.116-59.801c0.649-5.447-0.649-10.95-3.665-15.533  l-0.145-0.221c-16.256-1.656-30.307,6.872-37.033,11.941c9.042,3.909,16.048,5.113,16.048,5.113l-3.228,57.63  C363.664,456.612,365.593,458.674,368.038,458.698z"/><path xmlns="http://www.w3.org/2000/svg" d="M173.452,350.514l-30.116-2.549l-0.329,32.785c8.222-1.334,20.029-3.297,28.781-4.758L173.452,350.514z"/><path xmlns="http://www.w3.org/2000/svg" d="M420.531,285.355c-5.259-4.098-7.781-10.559-8.984-15.491c-0.822-3.369-0.951-6.851-0.949-10.318  c0.01-19.269-12.547-31.227-12.547-31.227c-18.507-18.882-38.777-8.206-46.443-2.919c-1.998-1.653-4.103-3.179-6.335-4.527  c-34.129,28.714-49.22,81.416-53.692,104.588c-0.36,1.868-0.66,3.566-0.888,5.021l-8.398-0.216  c-0.028-1.409-0.017-2.803-0.005-4.196c0.453-54.125,29.995-95.558,43.768-112.122c-2.443-0.372-4.921-0.639-7.467-0.664  l-29.131-0.292c-6.983,12.24-10.289,29.85-11.531,38.267c-0.411,2.779-2.715,4.801-5.402,4.773  c-2.141-0.021-4.113-1.324-4.932-3.394c-5.37-13.566-8.352-30.364-9.736-39.964l-19.605-0.197  c15.258,53.519,6.907,97.533,1.551,116.695l25.637,0.659c-0.385,9.983,1.451,45.733,45.137,64.216l-0.502,50.08  c-0.025,2.441,1.935,4.441,4.377,4.466l4.894,0.049c2.264,0.022,4.179-1.667,4.438-3.917l7.531-65.492  c4.129,3.593,8.497,6.494,12.72,8.804c12.056-16.78,26.147-21.524,34.658-22.72l-6.599-10.029c-1.07-1.627-1.999-3.33-2.786-5.091  c-20.77-1.962-37.393,11.911-44.396,18.972c-0.597,0.6-1.146,1.168-1.6,1.656c-0.457-0.585-0.896-1.196-1.335-1.807  c-0.184-0.256-0.375-0.5-0.555-0.76c-0.318-0.459-0.619-0.941-0.926-1.414c-0.321-0.495-0.644-0.987-0.952-1.498  c-0.095-0.156-0.183-0.32-0.276-0.479c0.52-0.863,1.069-1.654,1.607-2.473c14.839-22.56,36.889-28.405,45.402-29.811l2.779-47.486  c-34.959,9.787-54.749,40.793-57.437,45.334c-0.216,0.363-0.337,0.579-0.337,0.579l-7.25-0.187c0.615-2.18,1.35-4.252,2.087-6.32  c13.125-36.868,44.291-56.252,59.329-63.709c1.851-0.918,3.512-1.695,4.807-2.264c0.256,1.787,0.435,3.598,0.503,5.436  c0.001,0.025,0.006,0.049,0.007,0.074c0.066,1.861,0.037,3.746-0.095,5.648c0,0.001,0,0.002,0,0.004l-0.168,2.404l-0.352,5.021  c12.588,18.441,36.413,20.357,46.776,20.23c2.945-0.035,5.486-2.074,6.229-4.925C423.854,289.752,422.712,287.054,420.531,285.355z"/><path xmlns="http://www.w3.org/2000/svg" d="M199.707,210.16c-3.864-1.048-7.167-2.437-10.008-4.026c-25.807,31.419-71.063,35.16-86.952,35.46  c5.193,21.648,14.966,38.898,23.665,50.925C143.234,284.066,189.267,257.004,199.707,210.16z"/><path xmlns="http://www.w3.org/2000/svg" d="M142.291,452.147c-0.023,2.368,1.877,4.306,4.244,4.33l15.928,0.159c2.276,0.023,4.173-1.736,4.321-4.008l3.761-57.604  l-27.653-2.748L142.291,452.147z"/><path xmlns="http://www.w3.org/2000/svg" d="M135.656,133.202c-1.163-1.526-2.29-3.104-3.365-4.75c-1.09-1.667-2.136-3.39-3.118-5.183  c-0.553-1.009-1.048-2.078-1.562-3.128c-6.824,10.906-12.242,21.463-16.423,31.633c1.119,0.904,2.426,1.92,3.909,3.019  c1.316,0.974,2.789,2.012,4.375,3.087c1.385,0.938,2.859,1.898,4.438,2.878c11.835,7.349,28.995,15.395,49.369,17.408  c0.788-4.823,2.649-9.275,5.369-13.096C167.739,160.548,149.077,150.802,135.656,133.202z"/><polygon xmlns="http://www.w3.org/2000/svg" points="366.277,332.586 366.277,332.586 366.25,332.977 "/></g>        </g></svg>